# Blender v2.91.0 OBJ File: 'fir tree.blend'
# www.blender.org
mtllib tree.mtl
o FirTree
v -0.669868 -0.000186 0.669868
v 0.669868 -0.000186 0.669868
v -0.669868 -0.000186 -0.669868
v 0.669868 -0.000186 -0.669868
v -0.947336 -0.000186 -0.000000
v -0.000000 -0.000186 0.947336
v 0.947336 -0.000186 0.000000
v 0.000000 -0.000186 -0.947336
v 0.000000 -0.000186 0.000000
v 0.506671 1.470761 0.506671
v -3.032060 1.001548 -0.020457
v 0.008473 1.407914 3.020077
v 0.008474 1.320207 -3.060989
v 3.049006 1.410317 -0.020455
v -2.141509 1.303792 -2.170438
v -2.141509 1.410317 2.129526
v 2.158455 1.127538 2.129526
v 2.158455 1.408256 -2.170438
v 0.008473 1.394202 -0.020456
v -0.224542 5.092009 -0.253471
v -0.354980 5.078246 0.061519
v -0.224768 5.076742 0.376234
v 0.089520 5.121737 0.506019
v 0.404110 5.148250 0.375181
v 0.534966 5.119917 0.060609
v 0.405042 5.090206 -0.253817
v 0.090384 5.085100 -0.383973
v -0.000000 1.470761 0.716540
v 1.320169 2.717863 1.291240
v 0.021317 2.579464 1.823822
v -1.274652 2.531504 -1.303581
v 0.020768 2.548265 -1.839595
v 1.855576 2.680059 -0.004786
v -1.808635 2.619942 -0.006131
v 1.317705 2.622500 -1.301261
v -1.272519 2.615955 1.288590
v -2.491829 3.004744 -0.872784
v -0.848725 2.954181 2.506195
v 0.893168 3.055563 -2.519611
v 2.543848 3.184144 0.866944
v -1.143181 2.929027 -2.399559
v -2.364644 3.163830 1.164464
v 1.194222 3.223129 2.392741
v 2.418353 3.083685 -1.168613
v 0.051408 3.121314 0.022479
v -0.117182 6.232970 -0.325928
v -0.315062 6.233993 -0.102568
v -0.298553 6.270041 0.193759
v -0.077332 6.319813 0.389462
v 0.219369 6.347890 0.370257
v 0.417742 6.338175 0.147390
v 0.401267 6.301799 -0.148902
v 0.179555 6.260692 -0.345097
v 0.716540 1.470761 0.000000
v 0.775991 4.351448 1.486402
v -0.452673 4.102340 1.556624
v -0.628895 4.125359 -1.397164
v 0.594188 4.093565 -1.472967
v 1.588424 4.282896 0.566855
v -1.442846 4.110331 -0.479135
v 1.512528 4.147384 -0.659547
v -1.371844 4.017311 0.742373
v -1.492416 4.711016 -1.127688
v -1.103650 4.406561 1.610485
v 1.247893 4.569054 -1.524100
v 1.641535 4.847814 1.218949
v -0.203624 4.598627 -1.893835
v -1.866007 4.530506 0.323061
v 0.351654 4.802082 1.984007
v 2.012009 4.622005 -0.234917
v 0.091865 4.697913 0.062936
v -0.065549 7.304180 -0.337851
v -0.253959 7.294390 -0.225219
v -0.309632 7.315720 -0.013632
v -0.200136 7.357646 0.172785
v 0.010660 7.392559 0.225103
v 0.199412 7.398536 0.112814
v 0.255326 7.374588 -0.098532
v 0.145486 7.336491 -0.285293
v -0.716540 1.470761 -0.000000
v 0.240451 5.718125 1.212177
v -0.630436 5.553720 0.992890
v -0.090321 5.544517 -1.119905
v 0.784922 5.545205 -0.896263
v 1.017027 5.735104 0.750983
v -0.867796 5.560449 -0.659610
v 1.243625 5.626000 -0.121291
v -1.091154 5.551819 0.215904
v -0.969157 5.900696 -1.202440
v -1.175017 5.972711 1.061476
v 1.296564 5.930548 -0.997788
v 1.083536 6.186353 1.258961
v 0.206410 5.899799 -1.568915
v -1.541439 5.793283 -0.112972
v -0.089889 6.132823 1.627578
v 1.659060 6.074059 0.172735
v 0.068377 5.951067 0.039448
v -0.186420 8.939119 -0.215349
v -0.083433 7.020164 0.939561
v -0.733564 6.894218 0.602060
v 0.101945 6.803527 -0.978907
v 0.755240 6.887668 -0.638243
v 0.623305 7.052170 0.717466
v -0.603230 6.750315 -0.755250
v 0.971416 6.987883 0.064639
v -0.947996 6.770079 -0.099078
v -0.338424 8.090525 0.070504
v 0.139967 8.084342 -0.326819
v -0.129880 8.128304 0.178731
v -0.068894 8.049676 -0.435363
v 0.096779 8.140570 0.107347
v -0.295360 8.035522 -0.363787
v 0.208642 8.121500 -0.101970
v -0.406904 8.051470 -0.154150
v -0.506671 1.470761 -0.506671
v 0.506671 1.470761 -0.506671
v -0.506671 1.470761 0.506671
v 0.000000 1.470761 -0.716540
vt 0.694834 0.143679
vt 0.558012 0.143679
vt 0.558011 0.006565
vt 0.694834 0.006565
vt 0.694834 0.281172
vt 0.558012 0.281172
vt 0.832036 0.281172
vt 0.832036 0.143679
vt 0.832036 0.006565
vt 0.400295 0.478484
vt 0.400295 0.546012
vt 0.317188 0.546012
vt 0.317188 0.478484
vt 0.400295 0.208760
vt 0.400295 0.276102
vt 0.317188 0.276102
vt 0.317188 0.208760
vt 0.400295 0.006565
vt 0.400295 0.073906
vt 0.317188 0.073906
vt 0.317188 0.006565
vt 0.400295 0.343630
vt 0.317188 0.343630
vt 0.400295 0.141241
vt 0.317188 0.141241
vt 0.400295 0.411149
vt 0.317188 0.411149
vt 0.544882 0.411149
vt 0.544882 0.478484
vt 0.544882 0.141241
vt 0.544882 0.208760
vt 0.544882 0.343630
vt 0.544882 0.073906
vt 0.544882 0.276102
vt 0.544882 0.006565
vt 0.544882 0.546012
vt 0.408624 0.681014
vt 0.499210 0.681014
vt 0.499210 0.802237
vt 0.408624 0.802237
vt 0.408624 0.559141
vt 0.499210 0.559141
vt 0.317188 0.559141
vt 0.317188 0.681014
vt 0.317188 0.802237
vt 0.177689 0.854025
vt 0.177689 0.732389
vt 0.304058 0.732389
vt 0.304058 0.854025
vt 0.177689 0.369981
vt 0.177689 0.249475
vt 0.304058 0.249475
vt 0.304058 0.369981
vt 0.177689 0.611883
vt 0.304058 0.611883
vt 0.177689 0.127838
vt 0.304058 0.127838
vt 0.177689 0.491255
vt 0.304058 0.491255
vt 0.177689 0.006565
vt 0.304058 0.006565
vt 0.177689 0.974653
vt 0.304058 0.974653
vt 0.006565 0.974653
vt 0.006565 0.854025
vt 0.006565 0.491255
vt 0.006565 0.369981
vt 0.006565 0.127838
vt 0.006565 0.006565
vt 0.006565 0.611882
vt 0.006565 0.249475
vt 0.006565 0.732389
vt 0.406431 0.904578
vt 0.494473 0.904578
vt 0.494473 0.993435
vt 0.406431 0.993435
vt 0.406431 0.815367
vt 0.494473 0.815367
vt 0.317188 0.815367
vt 0.317188 0.904578
vt 0.317188 0.993435
vt 0.680326 0.503825
vt 0.680326 0.461543
vt 0.727375 0.461543
vt 0.727375 0.503825
vt 0.680327 0.336014
vt 0.680327 0.294301
vt 0.727375 0.294301
vt 0.727375 0.336014
vt 0.680326 0.419830
vt 0.727375 0.419830
vt 0.680326 0.629923
vt 0.680326 0.587641
vt 0.727375 0.587641
vt 0.727375 0.629923
vt 0.680327 0.378005
vt 0.727375 0.378005
vt 0.680326 0.545650
vt 0.727375 0.545650
vt 0.558011 0.545650
vt 0.558011 0.503825
vt 0.558011 0.378005
vt 0.558011 0.336014
vt 0.558012 0.587641
vt 0.558011 0.419830
vt 0.558011 0.629923
vt 0.558011 0.461543
vt 0.558011 0.294301
vt 0.917387 0.078833
vt 0.989350 0.078833
vt 0.989350 0.151036
vt 0.917387 0.151036
vt 0.917387 0.006565
vt 0.989350 0.006565
vt 0.845166 0.006565
vt 0.845166 0.078833
vt 0.845165 0.151036
vt 0.852772 0.302799
vt 0.834031 0.302799
vt 0.812151 0.294301
vt 0.777919 0.302799
vt 0.759245 0.302799
vt 0.796646 0.302799
vt 0.740504 0.302799
vt 0.815357 0.302799
vt 0.871482 0.564475
vt 0.852772 0.564475
vt 0.852772 0.447915
vt 0.871482 0.447915
vt 0.796646 0.564475
vt 0.777919 0.564475
vt 0.777919 0.447915
vt 0.796646 0.447915
vt 0.890210 0.564475
vt 0.890210 0.447915
vt 0.815357 0.564475
vt 0.815357 0.447915
vt 0.759245 0.564475
vt 0.740504 0.564475
vt 0.740504 0.447915
vt 0.759245 0.447915
vt 0.834031 0.564475
vt 0.834031 0.447915
vt 0.871482 0.302799
vt 0.890210 0.302799
vt 0.654411 0.739452
vt 0.750811 0.739452
vt 0.750811 0.835852
vt 0.654411 0.835852
vt 0.654411 0.643052
vt 0.750811 0.643052
vt 0.558011 0.643052
vt 0.558011 0.739452
vt 0.558011 0.835852
vt 0.972354 0.355333
vt 0.972354 0.416365
vt 0.903340 0.416364
vt 0.903340 0.355333
vt 0.972355 0.660491
vt 0.972354 0.721523
vt 0.903339 0.721523
vt 0.903339 0.660491
vt 0.972354 0.477396
vt 0.903339 0.477396
vt 0.972354 0.782555
vt 0.903339 0.782555
vt 0.972355 0.538428
vt 0.903339 0.538428
vt 0.972355 0.599460
vt 0.903339 0.599460
vt 0.972354 0.294301
vt 0.903340 0.294301
vn 0.0053 -0.9979 -0.0651
vn 0.0243 -0.9994 0.0243
vn 0.1280 -0.9915 0.0246
vn -0.0656 -0.9978 0.0045
vn 0.3046 0.4330 0.8484
vn -0.3392 0.4740 -0.8126
vn 0.8356 0.4410 0.3276
vn -0.8033 0.4794 -0.3532
vn 0.8147 0.4529 -0.3623
vn -0.8140 0.4720 0.3386
vn 0.3192 0.4664 -0.8250
vn -0.3442 0.4452 0.8266
vn -0.2730 0.6824 0.6781
vn 0.2543 0.6772 -0.6904
vn -0.7465 0.6222 0.2360
vn 0.6849 0.6661 -0.2954
vn -0.7360 0.6227 -0.2655
vn 0.7177 0.6077 0.3402
vn -0.2867 0.6781 -0.6767
vn 0.3204 0.6220 0.7144
vn 0.0107 -0.9990 0.0428
vn 0.0309 -0.9989 0.0361
vn 0.0201 -0.9972 0.0726
vn 0.0354 -0.9979 -0.0543
vn -0.0348 0.4750 0.8793
vn -0.0542 0.4578 -0.8874
vn 0.6672 0.4953 0.5564
vn -0.6675 0.4592 -0.5861
vn 0.8732 0.4756 -0.1067
vn -0.8902 0.4504 0.0682
vn 0.5671 0.4594 -0.6836
vn -0.6218 0.4481 0.6423
vn -0.4555 0.6962 0.5548
vn 0.4713 0.6831 -0.5579
vn -0.6919 0.7215 0.0275
vn 0.7501 0.6547 -0.0937
vn -0.5455 0.6732 -0.4992
vn 0.5927 0.6344 0.4962
vn -0.0637 0.6778 -0.7324
vn -0.0564 0.6305 0.7741
vn 0.0231 -0.9949 0.0980
vn -0.0324 -0.9978 0.0574
vn 0.0095 -0.9997 -0.0236
vn 0.1643 -0.9847 -0.0584
vn -0.2948 0.4539 0.8409
vn 0.2159 0.3888 -0.8957
vn 0.4333 0.5008 0.7493
vn -0.4731 0.3656 -0.8016
vn 0.8592 0.4844 0.1645
vn -0.8980 0.3720 -0.2348
vn 0.7508 0.4343 -0.4976
vn -0.7954 0.4033 0.4524
vn -0.7016 0.5537 0.4484
vn 0.6791 0.5872 -0.4404
vn -0.7776 0.6106 -0.1499
vn 0.7893 0.6030 0.1158
vn -0.3687 0.6266 -0.6867
vn 0.3845 0.6243 0.6799
vn 0.2045 0.6008 -0.7728
vn -0.3289 0.5665 0.7556
vn 0.0741 -0.9889 0.1291
vn 0.0397 -0.9970 0.0667
vn 0.0558 -0.9984 -0.0061
vn 0.0839 -0.9889 0.1230
vn -0.4804 0.3560 0.8015
vn 0.4084 0.2697 -0.8720
vn 0.8679 0.3740 -0.3269
vn -0.3067 0.1902 -0.9326
vn 0.8065 0.4439 0.3906
vn 0.2485 0.4374 0.8643
vn -0.8452 0.5031 0.1803
vn 0.7747 0.5506 -0.3109
vn -0.7750 0.5035 -0.3819
vn 0.7340 0.5938 0.3296
vn -0.2689 0.5198 -0.8109
vn 0.2155 0.5975 0.7724
vn 0.3684 0.5208 -0.7701
vn -0.4544 0.5547 0.6970
vn -0.8623 0.1816 -0.4726
vn -0.4741 0.4842 0.7354
vn 0.3759 0.4115 -0.8303
vn 0.2248 0.5575 0.7992
vn -0.3062 0.3444 -0.8875
vn 0.7531 0.5585 0.3478
vn -0.8284 0.3330 -0.4503
vn 0.8063 0.4968 -0.3211
vn -0.8982 0.3882 0.2061
vn -0.9375 0.2496 0.2424
vn 0.0000 -1.0000 0.0000
vn -0.9143 0.1435 0.3787
vn 0.3787 0.1435 -0.9143
vn -0.3787 0.1435 0.9143
vn -0.3787 0.1435 -0.9143
vn 0.3787 0.1435 0.9143
vn 0.9143 0.1435 0.3787
vn -0.9143 0.1435 -0.3787
vn 0.9143 0.1435 -0.3787
usemtl Green
s off
f 19/1/1 18/2/1 14/3/1 17/4/1
f 15/5/2 13/6/2 18/2/2 19/1/2
f 11/7/3 15/5/3 19/1/3 16/8/3
f 16/8/4 19/1/4 17/4/4 12/9/4
f 30/10/5 29/11/5 24/12/5 23/13/5
f 32/14/6 31/15/6 20/16/6 27/17/6
f 29/18/7 33/19/7 25/20/7 24/21/7
f 31/15/8 34/22/8 21/23/8 20/16/8
f 33/19/9 35/24/9 26/25/9 25/20/9
f 34/22/10 36/26/10 22/27/10 21/23/10
f 35/24/11 32/14/11 27/17/11 26/25/11
f 36/26/12 30/10/12 23/13/12 22/27/12
f 16/28/13 12/29/13 30/10/13 36/26/13
f 18/30/14 13/31/14 32/14/14 35/24/14
f 11/32/15 16/28/15 36/26/15 34/22/15
f 14/33/16 18/30/16 35/24/16 33/19/16
f 15/34/17 11/32/17 34/22/17 31/15/17
f 17/35/18 14/33/18 33/19/18 29/18/18
f 13/31/19 15/34/19 31/15/19 32/14/19
f 12/29/20 17/36/20 29/11/20 30/10/20
f 45/37/21 44/38/21 40/39/21 43/40/21
f 41/41/22 39/42/22 44/38/22 45/37/22
f 37/43/23 41/41/23 45/37/23 42/44/23
f 42/44/24 45/37/24 43/40/24 38/45/24
f 56/46/25 55/47/25 50/48/25 49/49/25
f 58/50/26 57/51/26 46/52/26 53/53/26
f 55/47/27 59/54/27 51/55/27 50/48/27
f 57/51/28 60/56/28 47/57/28 46/52/28
f 59/54/29 61/58/29 52/59/29 51/55/29
f 60/56/30 62/60/30 48/61/30 47/57/30
f 61/58/31 58/50/31 53/53/31 52/59/31
f 62/62/32 56/46/32 49/49/32 48/63/32
f 42/64/33 38/65/33 56/46/33 62/62/33
f 44/66/34 39/67/34 58/50/34 61/58/34
f 37/68/35 42/69/35 62/60/35 60/56/35
f 40/70/36 44/66/36 61/58/36 59/54/36
f 41/71/37 37/68/37 60/56/37 57/51/37
f 43/72/38 40/70/38 59/54/38 55/47/38
f 39/67/39 41/71/39 57/51/39 58/50/39
f 38/65/40 43/72/40 55/47/40 56/46/40
f 71/73/41 70/74/41 66/75/41 69/76/41
f 67/77/42 65/78/42 70/74/42 71/73/42
f 63/79/43 67/77/43 71/73/43 68/80/43
f 68/80/44 71/73/44 69/76/44 64/81/44
f 82/82/45 81/83/45 76/84/45 75/85/45
f 84/86/46 83/87/46 72/88/46 79/89/46
f 81/83/47 85/90/47 77/91/47 76/84/47
f 83/92/48 86/93/48 73/94/48 72/95/48
f 85/90/49 87/96/49 78/97/49 77/91/49
f 86/93/50 88/98/50 74/99/50 73/94/50
f 87/96/51 84/86/51 79/89/51 78/97/51
f 88/98/52 82/82/52 75/85/52 74/99/52
f 68/100/53 64/101/53 82/82/53 88/98/53
f 70/102/54 65/103/54 84/86/54 87/96/54
f 63/104/55 68/100/55 88/98/55 86/93/55
f 66/105/56 70/102/56 87/96/56 85/90/56
f 67/106/57 63/104/57 86/93/57 83/92/57
f 69/107/58 66/105/58 85/90/58 81/83/58
f 65/103/59 67/108/59 83/87/59 84/86/59
f 64/101/60 69/107/60 81/83/60 82/82/60
f 97/109/61 96/110/61 92/111/61 95/112/61
f 93/113/62 91/114/62 96/110/62 97/109/62
f 89/115/63 93/113/63 97/109/63 94/116/63
f 94/116/64 97/109/64 95/112/64 90/117/64
f 107/118/65 109/119/65 98/120/65
f 108/121/66 110/122/66 98/120/66
f 98/120/67 113/123/67 108/121/67
f 110/122/68 112/124/68 98/120/68
f 111/125/69 113/123/69 98/120/69
f 109/119/70 111/125/70 98/120/70
f 94/126/71 90/127/71 100/128/71 106/129/71
f 96/130/72 91/131/72 102/132/72 105/133/72
f 89/134/73 94/126/73 106/129/73 104/135/73
f 92/136/74 96/130/74 105/133/74 103/137/74
f 93/138/75 89/139/75 104/140/75 101/141/75
f 95/142/76 92/136/76 103/137/76 99/143/76
f 91/131/77 93/138/77 101/141/77 102/132/77
f 90/127/78 95/142/78 99/143/78 100/128/78
f 112/124/79 114/144/79 98/120/79
f 100/128/80 99/143/80 109/119/80 107/118/80
f 102/132/81 101/141/81 110/122/81 108/121/81
f 99/143/82 103/137/82 111/125/82 109/119/82
f 101/141/83 104/140/83 112/124/83 110/122/83
f 103/137/84 105/133/84 113/123/84 111/125/84
f 104/135/85 106/129/85 114/144/85 112/145/85
f 105/133/86 102/132/86 108/121/86 113/123/86
f 106/129/87 100/128/87 107/118/87 114/144/87
f 114/144/88 107/118/88 98/120/88
usemtl Brown
f 9/146/89 8/147/89 4/148/89 7/149/89
f 5/150/89 3/151/89 8/147/89 9/146/89
f 1/152/89 5/150/89 9/146/89 6/153/89
f 6/153/89 9/146/89 7/149/89 2/154/89
f 5/155/90 1/156/90 117/157/90 80/158/90
f 4/159/91 8/160/91 118/161/91 116/162/91
f 1/156/92 6/163/92 28/164/92 117/157/92
f 8/160/93 3/165/93 115/166/93 118/161/93
f 6/163/94 2/167/94 10/168/94 28/164/94
f 2/167/95 7/169/95 54/170/95 10/168/95
f 3/171/96 5/155/96 80/158/96 115/172/96
f 7/169/97 4/159/97 116/162/97 54/170/97
